%TF.GenerationSoftware,KiCad,Pcbnew,(6.0.5)*%
%TF.CreationDate,2022-07-21T11:20:11-07:00*%
%TF.ProjectId,clock,636c6f63-6b2e-46b6-9963-61645f706362,rev?*%
%TF.SameCoordinates,Original*%
%TF.FileFunction,Paste,Top*%
%TF.FilePolarity,Positive*%
%FSLAX46Y46*%
G04 Gerber Fmt 4.6, Leading zero omitted, Abs format (unit mm)*
G04 Created by KiCad (PCBNEW (6.0.5)) date 2022-07-21 11:20:11*
%MOMM*%
%LPD*%
G01*
G04 APERTURE LIST*
G04 Aperture macros list*
%AMRoundRect*
0 Rectangle with rounded corners*
0 $1 Rounding radius*
0 $2 $3 $4 $5 $6 $7 $8 $9 X,Y pos of 4 corners*
0 Add a 4 corners polygon primitive as box body*
4,1,4,$2,$3,$4,$5,$6,$7,$8,$9,$2,$3,0*
0 Add four circle primitives for the rounded corners*
1,1,$1+$1,$2,$3*
1,1,$1+$1,$4,$5*
1,1,$1+$1,$6,$7*
1,1,$1+$1,$8,$9*
0 Add four rect primitives between the rounded corners*
20,1,$1+$1,$2,$3,$4,$5,0*
20,1,$1+$1,$4,$5,$6,$7,0*
20,1,$1+$1,$6,$7,$8,$9,0*
20,1,$1+$1,$8,$9,$2,$3,0*%
G04 Aperture macros list end*
%ADD10R,1.150000X1.400000*%
%ADD11R,1.400000X1.150000*%
%ADD12R,1.600000X1.400000*%
%ADD13RoundRect,0.243750X-0.456250X0.243750X-0.456250X-0.243750X0.456250X-0.243750X0.456250X0.243750X0*%
%ADD14R,1.800000X1.000000*%
%ADD15R,3.050000X2.750000*%
%ADD16R,2.200000X1.200000*%
%ADD17R,4.500000X2.000000*%
G04 APERTURE END LIST*
D10*
%TO.C,R9*%
X113880000Y-87630000D03*
X112180000Y-87630000D03*
%TD*%
D11*
%TO.C,C8*%
X191770000Y-90600000D03*
X191770000Y-88900000D03*
%TD*%
D10*
%TO.C,C7*%
X91010000Y-135890000D03*
X92710000Y-135890000D03*
%TD*%
D11*
%TO.C,R2*%
X111760000Y-67780000D03*
X111760000Y-69480000D03*
%TD*%
D10*
%TO.C,C5*%
X105830000Y-67780000D03*
X107530000Y-67780000D03*
%TD*%
%TO.C,R6*%
X115990000Y-123190000D03*
X117690000Y-123190000D03*
%TD*%
D11*
%TO.C,R11*%
X185420000Y-130390000D03*
X185420000Y-128690000D03*
%TD*%
%TO.C,R4*%
X156210000Y-64820000D03*
X156210000Y-63120000D03*
%TD*%
D10*
%TO.C,C4*%
X144360000Y-87630000D03*
X142660000Y-87630000D03*
%TD*%
D11*
%TO.C,C9*%
X194310000Y-90600000D03*
X194310000Y-88900000D03*
%TD*%
D12*
%TO.C,SW3*%
X175070000Y-123900000D03*
X183070000Y-123900000D03*
X175070000Y-128400000D03*
X183070000Y-128400000D03*
%TD*%
D11*
%TO.C,R1*%
X133350000Y-85940000D03*
X133350000Y-84240000D03*
%TD*%
%TO.C,R3*%
X114300000Y-67780000D03*
X114300000Y-69480000D03*
%TD*%
D10*
%TO.C,C3*%
X161710000Y-87630000D03*
X163410000Y-87630000D03*
%TD*%
D12*
%TO.C,SW2*%
X187770000Y-123480000D03*
X195770000Y-123480000D03*
X187770000Y-127980000D03*
X195770000Y-127980000D03*
%TD*%
D10*
%TO.C,R5*%
X117690000Y-125730000D03*
X115990000Y-125730000D03*
%TD*%
D12*
%TO.C,SW1*%
X101790000Y-72570000D03*
X93790000Y-72570000D03*
X101790000Y-68070000D03*
X93790000Y-68070000D03*
%TD*%
D13*
%TO.C,D1*%
X156210000Y-66842500D03*
X156210000Y-68717500D03*
%TD*%
D11*
%TO.C,R10*%
X198120000Y-130390000D03*
X198120000Y-128690000D03*
%TD*%
%TO.C,C6*%
X87630000Y-128270000D03*
X87630000Y-129970000D03*
%TD*%
%TO.C,R12*%
X172720000Y-130390000D03*
X172720000Y-128690000D03*
%TD*%
D14*
%TO.C,Y2*%
X133350000Y-130810000D03*
X133350000Y-128310000D03*
%TD*%
D11*
%TO.C,C1*%
X151130000Y-68630000D03*
X151130000Y-66930000D03*
%TD*%
D12*
%TO.C,SW4*%
X162370000Y-123900000D03*
X170370000Y-123900000D03*
X162370000Y-128400000D03*
X170370000Y-128400000D03*
%TD*%
D11*
%TO.C,C2*%
X153670000Y-68630000D03*
X153670000Y-66930000D03*
%TD*%
%TO.C,R7*%
X194310000Y-93130000D03*
X194310000Y-94830000D03*
%TD*%
D15*
%TO.C,U2*%
X95675000Y-132335000D03*
X95675000Y-129285000D03*
X99025000Y-132335000D03*
X99025000Y-129285000D03*
D16*
X91050000Y-128530000D03*
X91050000Y-133090000D03*
%TD*%
D17*
%TO.C,Y1*%
X157480000Y-87630000D03*
X148980000Y-87630000D03*
%TD*%
M02*
