%TF.GenerationSoftware,KiCad,Pcbnew,(6.0.5)*%
%TF.CreationDate,2022-07-21T11:20:11-07:00*%
%TF.ProjectId,clock,636c6f63-6b2e-46b6-9963-61645f706362,rev?*%
%TF.SameCoordinates,Original*%
%TF.FileFunction,Legend,Top*%
%TF.FilePolarity,Positive*%
%FSLAX46Y46*%
G04 Gerber Fmt 4.6, Leading zero omitted, Abs format (unit mm)*
G04 Created by KiCad (PCBNEW (6.0.5)) date 2022-07-21 11:20:11*
%MOMM*%
%LPD*%
G01*
G04 APERTURE LIST*
G04 Aperture macros list*
%AMRoundRect*
0 Rectangle with rounded corners*
0 $1 Rounding radius*
0 $2 $3 $4 $5 $6 $7 $8 $9 X,Y pos of 4 corners*
0 Add a 4 corners polygon primitive as box body*
4,1,4,$2,$3,$4,$5,$6,$7,$8,$9,$2,$3,0*
0 Add four circle primitives for the rounded corners*
1,1,$1+$1,$2,$3*
1,1,$1+$1,$4,$5*
1,1,$1+$1,$6,$7*
1,1,$1+$1,$8,$9*
0 Add four rect primitives between the rounded corners*
20,1,$1+$1,$2,$3,$4,$5,0*
20,1,$1+$1,$4,$5,$6,$7,0*
20,1,$1+$1,$6,$7,$8,$9,0*
20,1,$1+$1,$8,$9,$2,$3,0*%
G04 Aperture macros list end*
%ADD10C,0.150000*%
%ADD11C,0.120000*%
%ADD12C,0.250000*%
%ADD13R,1.600000X1.600000*%
%ADD14O,1.600000X1.600000*%
%ADD15C,3.200000*%
%ADD16R,1.700000X1.700000*%
%ADD17O,1.700000X1.700000*%
%ADD18R,1.150000X1.400000*%
%ADD19R,1.400000X1.150000*%
%ADD20R,1.400000X1.400000*%
%ADD21C,1.400000*%
%ADD22R,1.600000X1.400000*%
%ADD23R,3.000000X3.000000*%
%ADD24C,3.000000*%
%ADD25RoundRect,0.243750X-0.456250X0.243750X-0.456250X-0.243750X0.456250X-0.243750X0.456250X0.243750X0*%
%ADD26C,1.600000*%
%ADD27R,1.800000X1.000000*%
%ADD28R,2.200000X1.200000*%
%ADD29R,6.400000X5.800000*%
%ADD30R,4.500000X2.000000*%
%ADD31RoundRect,0.500000X-1.750000X-0.500000X1.750000X-0.500000X1.750000X0.500000X-1.750000X0.500000X0*%
%ADD32RoundRect,0.500000X0.500000X-1.500000X0.500000X1.500000X-0.500000X1.500000X-0.500000X-1.500000X0*%
G04 APERTURE END LIST*
D10*
%TO.C,U1*%
X130482380Y-76151904D02*
X131291904Y-76151904D01*
X131387142Y-76104285D01*
X131434761Y-76056666D01*
X131482380Y-75961428D01*
X131482380Y-75770952D01*
X131434761Y-75675714D01*
X131387142Y-75628095D01*
X131291904Y-75580476D01*
X130482380Y-75580476D01*
X131482380Y-74580476D02*
X131482380Y-75151904D01*
X131482380Y-74866190D02*
X130482380Y-74866190D01*
X130625238Y-74961428D01*
X130720476Y-75056666D01*
X130768095Y-75151904D01*
%TO.C,H4*%
X214238095Y-136252380D02*
X214238095Y-135252380D01*
X214238095Y-135728571D02*
X214809523Y-135728571D01*
X214809523Y-136252380D02*
X214809523Y-135252380D01*
X215714285Y-135585714D02*
X215714285Y-136252380D01*
X215476190Y-135204761D02*
X215238095Y-135919047D01*
X215857142Y-135919047D01*
%TO.C,J1*%
X123702380Y-64303333D02*
X124416666Y-64303333D01*
X124559523Y-64350952D01*
X124654761Y-64446190D01*
X124702380Y-64589047D01*
X124702380Y-64684285D01*
X124702380Y-63303333D02*
X124702380Y-63874761D01*
X124702380Y-63589047D02*
X123702380Y-63589047D01*
X123845238Y-63684285D01*
X123940476Y-63779523D01*
X123988095Y-63874761D01*
%TO.C,U4*%
X124958095Y-132582380D02*
X124958095Y-133391904D01*
X125005714Y-133487142D01*
X125053333Y-133534761D01*
X125148571Y-133582380D01*
X125339047Y-133582380D01*
X125434285Y-133534761D01*
X125481904Y-133487142D01*
X125529523Y-133391904D01*
X125529523Y-132582380D01*
X126434285Y-132915714D02*
X126434285Y-133582380D01*
X126196190Y-132534761D02*
X125958095Y-133249047D01*
X126577142Y-133249047D01*
%TO.C,R9*%
X113453742Y-86384788D02*
X113120409Y-85908598D01*
X112882313Y-86384788D02*
X112882313Y-85384788D01*
X113263266Y-85384788D01*
X113358504Y-85432408D01*
X113406123Y-85480027D01*
X113453742Y-85575265D01*
X113453742Y-85718122D01*
X113406123Y-85813360D01*
X113358504Y-85860979D01*
X113263266Y-85908598D01*
X112882313Y-85908598D01*
X113929932Y-86384788D02*
X114120409Y-86384788D01*
X114215647Y-86337169D01*
X114263266Y-86289550D01*
X114358504Y-86146693D01*
X114406123Y-85956217D01*
X114406123Y-85575265D01*
X114358504Y-85480027D01*
X114310885Y-85432408D01*
X114215647Y-85384788D01*
X114025170Y-85384788D01*
X113929932Y-85432408D01*
X113882313Y-85480027D01*
X113834694Y-85575265D01*
X113834694Y-85813360D01*
X113882313Y-85908598D01*
X113929932Y-85956217D01*
X114025170Y-86003836D01*
X114215647Y-86003836D01*
X114310885Y-85956217D01*
X114358504Y-85908598D01*
X114406123Y-85813360D01*
%TO.C,C8*%
X190477142Y-89916666D02*
X190524761Y-89964285D01*
X190572380Y-90107142D01*
X190572380Y-90202380D01*
X190524761Y-90345238D01*
X190429523Y-90440476D01*
X190334285Y-90488095D01*
X190143809Y-90535714D01*
X190000952Y-90535714D01*
X189810476Y-90488095D01*
X189715238Y-90440476D01*
X189620000Y-90345238D01*
X189572380Y-90202380D01*
X189572380Y-90107142D01*
X189620000Y-89964285D01*
X189667619Y-89916666D01*
X190000952Y-89345238D02*
X189953333Y-89440476D01*
X189905714Y-89488095D01*
X189810476Y-89535714D01*
X189762857Y-89535714D01*
X189667619Y-89488095D01*
X189620000Y-89440476D01*
X189572380Y-89345238D01*
X189572380Y-89154761D01*
X189620000Y-89059523D01*
X189667619Y-89011904D01*
X189762857Y-88964285D01*
X189810476Y-88964285D01*
X189905714Y-89011904D01*
X189953333Y-89059523D01*
X190000952Y-89154761D01*
X190000952Y-89345238D01*
X190048571Y-89440476D01*
X190096190Y-89488095D01*
X190191428Y-89535714D01*
X190381904Y-89535714D01*
X190477142Y-89488095D01*
X190524761Y-89440476D01*
X190572380Y-89345238D01*
X190572380Y-89154761D01*
X190524761Y-89059523D01*
X190477142Y-89011904D01*
X190381904Y-88964285D01*
X190191428Y-88964285D01*
X190096190Y-89011904D01*
X190048571Y-89059523D01*
X190000952Y-89154761D01*
%TO.C,C7*%
X90880812Y-137988940D02*
X90833193Y-138036559D01*
X90690336Y-138084178D01*
X90595098Y-138084178D01*
X90452240Y-138036559D01*
X90357002Y-137941321D01*
X90309383Y-137846083D01*
X90261764Y-137655607D01*
X90261764Y-137512750D01*
X90309383Y-137322274D01*
X90357002Y-137227036D01*
X90452240Y-137131798D01*
X90595098Y-137084178D01*
X90690336Y-137084178D01*
X90833193Y-137131798D01*
X90880812Y-137179417D01*
X91214145Y-137084178D02*
X91880812Y-137084178D01*
X91452240Y-138084178D01*
%TO.C,R2*%
X110498924Y-68787217D02*
X110022734Y-69120551D01*
X110498924Y-69358646D02*
X109498924Y-69358646D01*
X109498924Y-68977693D01*
X109546544Y-68882455D01*
X109594163Y-68834836D01*
X109689401Y-68787217D01*
X109832258Y-68787217D01*
X109927496Y-68834836D01*
X109975115Y-68882455D01*
X110022734Y-68977693D01*
X110022734Y-69358646D01*
X109594163Y-68406265D02*
X109546544Y-68358646D01*
X109498924Y-68263408D01*
X109498924Y-68025312D01*
X109546544Y-67930074D01*
X109594163Y-67882455D01*
X109689401Y-67834836D01*
X109784639Y-67834836D01*
X109927496Y-67882455D01*
X110498924Y-68453884D01*
X110498924Y-67834836D01*
%TO.C,J4*%
X145287380Y-64303333D02*
X146001666Y-64303333D01*
X146144523Y-64350952D01*
X146239761Y-64446190D01*
X146287380Y-64589047D01*
X146287380Y-64684285D01*
X145620714Y-63398571D02*
X146287380Y-63398571D01*
X145239761Y-63636666D02*
X145954047Y-63874761D01*
X145954047Y-63255714D01*
%TO.C,C5*%
X106513333Y-66487142D02*
X106465714Y-66534761D01*
X106322857Y-66582380D01*
X106227619Y-66582380D01*
X106084761Y-66534761D01*
X105989523Y-66439523D01*
X105941904Y-66344285D01*
X105894285Y-66153809D01*
X105894285Y-66010952D01*
X105941904Y-65820476D01*
X105989523Y-65725238D01*
X106084761Y-65630000D01*
X106227619Y-65582380D01*
X106322857Y-65582380D01*
X106465714Y-65630000D01*
X106513333Y-65677619D01*
X107418095Y-65582380D02*
X106941904Y-65582380D01*
X106894285Y-66058571D01*
X106941904Y-66010952D01*
X107037142Y-65963333D01*
X107275238Y-65963333D01*
X107370476Y-66010952D01*
X107418095Y-66058571D01*
X107465714Y-66153809D01*
X107465714Y-66391904D01*
X107418095Y-66487142D01*
X107370476Y-66534761D01*
X107275238Y-66582380D01*
X107037142Y-66582380D01*
X106941904Y-66534761D01*
X106894285Y-66487142D01*
%TO.C,R6*%
X116673333Y-121992380D02*
X116340000Y-121516190D01*
X116101904Y-121992380D02*
X116101904Y-120992380D01*
X116482857Y-120992380D01*
X116578095Y-121040000D01*
X116625714Y-121087619D01*
X116673333Y-121182857D01*
X116673333Y-121325714D01*
X116625714Y-121420952D01*
X116578095Y-121468571D01*
X116482857Y-121516190D01*
X116101904Y-121516190D01*
X117530476Y-120992380D02*
X117340000Y-120992380D01*
X117244761Y-121040000D01*
X117197142Y-121087619D01*
X117101904Y-121230476D01*
X117054285Y-121420952D01*
X117054285Y-121801904D01*
X117101904Y-121897142D01*
X117149523Y-121944761D01*
X117244761Y-121992380D01*
X117435238Y-121992380D01*
X117530476Y-121944761D01*
X117578095Y-121897142D01*
X117625714Y-121801904D01*
X117625714Y-121563809D01*
X117578095Y-121468571D01*
X117530476Y-121420952D01*
X117435238Y-121373333D01*
X117244761Y-121373333D01*
X117149523Y-121420952D01*
X117101904Y-121468571D01*
X117054285Y-121563809D01*
%TO.C,R11*%
X184777142Y-132532380D02*
X184443809Y-132056190D01*
X184205714Y-132532380D02*
X184205714Y-131532380D01*
X184586666Y-131532380D01*
X184681904Y-131580000D01*
X184729523Y-131627619D01*
X184777142Y-131722857D01*
X184777142Y-131865714D01*
X184729523Y-131960952D01*
X184681904Y-132008571D01*
X184586666Y-132056190D01*
X184205714Y-132056190D01*
X185729523Y-132532380D02*
X185158095Y-132532380D01*
X185443809Y-132532380D02*
X185443809Y-131532380D01*
X185348571Y-131675238D01*
X185253333Y-131770476D01*
X185158095Y-131818095D01*
X186681904Y-132532380D02*
X186110476Y-132532380D01*
X186396190Y-132532380D02*
X186396190Y-131532380D01*
X186300952Y-131675238D01*
X186205714Y-131770476D01*
X186110476Y-131818095D01*
%TO.C,R4*%
X155012380Y-64136666D02*
X154536190Y-64470000D01*
X155012380Y-64708095D02*
X154012380Y-64708095D01*
X154012380Y-64327142D01*
X154060000Y-64231904D01*
X154107619Y-64184285D01*
X154202857Y-64136666D01*
X154345714Y-64136666D01*
X154440952Y-64184285D01*
X154488571Y-64231904D01*
X154536190Y-64327142D01*
X154536190Y-64708095D01*
X154345714Y-63279523D02*
X155012380Y-63279523D01*
X153964761Y-63517619D02*
X154679047Y-63755714D01*
X154679047Y-63136666D01*
%TO.C,DS1*%
X124287380Y-109619404D02*
X123287380Y-109619404D01*
X123287380Y-109381309D01*
X123335000Y-109238452D01*
X123430238Y-109143214D01*
X123525476Y-109095595D01*
X123715952Y-109047976D01*
X123858809Y-109047976D01*
X124049285Y-109095595D01*
X124144523Y-109143214D01*
X124239761Y-109238452D01*
X124287380Y-109381309D01*
X124287380Y-109619404D01*
X124239761Y-108667023D02*
X124287380Y-108524166D01*
X124287380Y-108286071D01*
X124239761Y-108190833D01*
X124192142Y-108143214D01*
X124096904Y-108095595D01*
X124001666Y-108095595D01*
X123906428Y-108143214D01*
X123858809Y-108190833D01*
X123811190Y-108286071D01*
X123763571Y-108476547D01*
X123715952Y-108571785D01*
X123668333Y-108619404D01*
X123573095Y-108667023D01*
X123477857Y-108667023D01*
X123382619Y-108619404D01*
X123335000Y-108571785D01*
X123287380Y-108476547D01*
X123287380Y-108238452D01*
X123335000Y-108095595D01*
X124287380Y-107143214D02*
X124287380Y-107714642D01*
X124287380Y-107428928D02*
X123287380Y-107428928D01*
X123430238Y-107524166D01*
X123525476Y-107619404D01*
X123573095Y-107714642D01*
%TO.C,C4*%
X143343333Y-89637142D02*
X143295714Y-89684761D01*
X143152857Y-89732380D01*
X143057619Y-89732380D01*
X142914761Y-89684761D01*
X142819523Y-89589523D01*
X142771904Y-89494285D01*
X142724285Y-89303809D01*
X142724285Y-89160952D01*
X142771904Y-88970476D01*
X142819523Y-88875238D01*
X142914761Y-88780000D01*
X143057619Y-88732380D01*
X143152857Y-88732380D01*
X143295714Y-88780000D01*
X143343333Y-88827619D01*
X144200476Y-89065714D02*
X144200476Y-89732380D01*
X143962380Y-88684761D02*
X143724285Y-89399047D01*
X144343333Y-89399047D01*
%TO.C,C9*%
X196664034Y-89945009D02*
X196711653Y-89992628D01*
X196759272Y-90135485D01*
X196759272Y-90230723D01*
X196711653Y-90373581D01*
X196616415Y-90468819D01*
X196521177Y-90516438D01*
X196330701Y-90564057D01*
X196187844Y-90564057D01*
X195997368Y-90516438D01*
X195902130Y-90468819D01*
X195806892Y-90373581D01*
X195759272Y-90230723D01*
X195759272Y-90135485D01*
X195806892Y-89992628D01*
X195854511Y-89945009D01*
X196759272Y-89468819D02*
X196759272Y-89278343D01*
X196711653Y-89183104D01*
X196664034Y-89135485D01*
X196521177Y-89040247D01*
X196330701Y-88992628D01*
X195949749Y-88992628D01*
X195854511Y-89040247D01*
X195806892Y-89087866D01*
X195759272Y-89183104D01*
X195759272Y-89373581D01*
X195806892Y-89468819D01*
X195854511Y-89516438D01*
X195949749Y-89564057D01*
X196187844Y-89564057D01*
X196283082Y-89516438D01*
X196330701Y-89468819D01*
X196378320Y-89373581D01*
X196378320Y-89183104D01*
X196330701Y-89087866D01*
X196283082Y-89040247D01*
X196187844Y-88992628D01*
%TO.C,SW3*%
X177736666Y-122254761D02*
X177879523Y-122302380D01*
X178117619Y-122302380D01*
X178212857Y-122254761D01*
X178260476Y-122207142D01*
X178308095Y-122111904D01*
X178308095Y-122016666D01*
X178260476Y-121921428D01*
X178212857Y-121873809D01*
X178117619Y-121826190D01*
X177927142Y-121778571D01*
X177831904Y-121730952D01*
X177784285Y-121683333D01*
X177736666Y-121588095D01*
X177736666Y-121492857D01*
X177784285Y-121397619D01*
X177831904Y-121350000D01*
X177927142Y-121302380D01*
X178165238Y-121302380D01*
X178308095Y-121350000D01*
X178641428Y-121302380D02*
X178879523Y-122302380D01*
X179070000Y-121588095D01*
X179260476Y-122302380D01*
X179498571Y-121302380D01*
X179784285Y-121302380D02*
X180403333Y-121302380D01*
X180070000Y-121683333D01*
X180212857Y-121683333D01*
X180308095Y-121730952D01*
X180355714Y-121778571D01*
X180403333Y-121873809D01*
X180403333Y-122111904D01*
X180355714Y-122207142D01*
X180308095Y-122254761D01*
X180212857Y-122302380D01*
X179927142Y-122302380D01*
X179831904Y-122254761D01*
X179784285Y-122207142D01*
%TO.C,H2*%
X214238095Y-56252380D02*
X214238095Y-55252380D01*
X214238095Y-55728571D02*
X214809523Y-55728571D01*
X214809523Y-56252380D02*
X214809523Y-55252380D01*
X215238095Y-55347619D02*
X215285714Y-55300000D01*
X215380952Y-55252380D01*
X215619047Y-55252380D01*
X215714285Y-55300000D01*
X215761904Y-55347619D01*
X215809523Y-55442857D01*
X215809523Y-55538095D01*
X215761904Y-55680952D01*
X215190476Y-56252380D01*
X215809523Y-56252380D01*
%TO.C,R1*%
X132152380Y-85256666D02*
X131676190Y-85590000D01*
X132152380Y-85828095D02*
X131152380Y-85828095D01*
X131152380Y-85447142D01*
X131200000Y-85351904D01*
X131247619Y-85304285D01*
X131342857Y-85256666D01*
X131485714Y-85256666D01*
X131580952Y-85304285D01*
X131628571Y-85351904D01*
X131676190Y-85447142D01*
X131676190Y-85828095D01*
X132152380Y-84304285D02*
X132152380Y-84875714D01*
X132152380Y-84590000D02*
X131152380Y-84590000D01*
X131295238Y-84685238D01*
X131390476Y-84780476D01*
X131438095Y-84875714D01*
%TO.C,BT1*%
X91948588Y-108899400D02*
X91996207Y-108756543D01*
X92043826Y-108708924D01*
X92139064Y-108661305D01*
X92281921Y-108661305D01*
X92377159Y-108708924D01*
X92424778Y-108756543D01*
X92472397Y-108851781D01*
X92472397Y-109232733D01*
X91472397Y-109232733D01*
X91472397Y-108899400D01*
X91520017Y-108804162D01*
X91567636Y-108756543D01*
X91662874Y-108708924D01*
X91758112Y-108708924D01*
X91853350Y-108756543D01*
X91900969Y-108804162D01*
X91948588Y-108899400D01*
X91948588Y-109232733D01*
X91472397Y-108375590D02*
X91472397Y-107804162D01*
X92472397Y-108089876D02*
X91472397Y-108089876D01*
X92472397Y-106947019D02*
X92472397Y-107518447D01*
X92472397Y-107232733D02*
X91472397Y-107232733D01*
X91615255Y-107327971D01*
X91710493Y-107423209D01*
X91758112Y-107518447D01*
X96627159Y-104685114D02*
X96627159Y-103542257D01*
X97198588Y-104113686D02*
X96055731Y-104113686D01*
%TO.C,R3*%
X116039913Y-67032182D02*
X115706580Y-66555992D01*
X115468484Y-67032182D02*
X115468484Y-66032182D01*
X115849437Y-66032182D01*
X115944675Y-66079802D01*
X115992294Y-66127421D01*
X116039913Y-66222659D01*
X116039913Y-66365516D01*
X115992294Y-66460754D01*
X115944675Y-66508373D01*
X115849437Y-66555992D01*
X115468484Y-66555992D01*
X116373246Y-66032182D02*
X116992294Y-66032182D01*
X116658960Y-66413135D01*
X116801818Y-66413135D01*
X116897056Y-66460754D01*
X116944675Y-66508373D01*
X116992294Y-66603611D01*
X116992294Y-66841706D01*
X116944675Y-66936944D01*
X116897056Y-66984563D01*
X116801818Y-67032182D01*
X116516103Y-67032182D01*
X116420865Y-66984563D01*
X116373246Y-66936944D01*
%TO.C,J5*%
X171116666Y-82472380D02*
X171116666Y-83186666D01*
X171069047Y-83329523D01*
X170973809Y-83424761D01*
X170830952Y-83472380D01*
X170735714Y-83472380D01*
X172069047Y-82472380D02*
X171592857Y-82472380D01*
X171545238Y-82948571D01*
X171592857Y-82900952D01*
X171688095Y-82853333D01*
X171926190Y-82853333D01*
X172021428Y-82900952D01*
X172069047Y-82948571D01*
X172116666Y-83043809D01*
X172116666Y-83281904D01*
X172069047Y-83377142D01*
X172021428Y-83424761D01*
X171926190Y-83472380D01*
X171688095Y-83472380D01*
X171592857Y-83424761D01*
X171545238Y-83377142D01*
%TO.C,H3*%
X84238095Y-136252380D02*
X84238095Y-135252380D01*
X84238095Y-135728571D02*
X84809523Y-135728571D01*
X84809523Y-136252380D02*
X84809523Y-135252380D01*
X85190476Y-135252380D02*
X85809523Y-135252380D01*
X85476190Y-135633333D01*
X85619047Y-135633333D01*
X85714285Y-135680952D01*
X85761904Y-135728571D01*
X85809523Y-135823809D01*
X85809523Y-136061904D01*
X85761904Y-136157142D01*
X85714285Y-136204761D01*
X85619047Y-136252380D01*
X85333333Y-136252380D01*
X85238095Y-136204761D01*
X85190476Y-136157142D01*
%TO.C,C3*%
X162393333Y-86337142D02*
X162345714Y-86384761D01*
X162202857Y-86432380D01*
X162107619Y-86432380D01*
X161964761Y-86384761D01*
X161869523Y-86289523D01*
X161821904Y-86194285D01*
X161774285Y-86003809D01*
X161774285Y-85860952D01*
X161821904Y-85670476D01*
X161869523Y-85575238D01*
X161964761Y-85480000D01*
X162107619Y-85432380D01*
X162202857Y-85432380D01*
X162345714Y-85480000D01*
X162393333Y-85527619D01*
X162726666Y-85432380D02*
X163345714Y-85432380D01*
X163012380Y-85813333D01*
X163155238Y-85813333D01*
X163250476Y-85860952D01*
X163298095Y-85908571D01*
X163345714Y-86003809D01*
X163345714Y-86241904D01*
X163298095Y-86337142D01*
X163250476Y-86384761D01*
X163155238Y-86432380D01*
X162869523Y-86432380D01*
X162774285Y-86384761D01*
X162726666Y-86337142D01*
%TO.C,SW2*%
X190436666Y-121834761D02*
X190579523Y-121882380D01*
X190817619Y-121882380D01*
X190912857Y-121834761D01*
X190960476Y-121787142D01*
X191008095Y-121691904D01*
X191008095Y-121596666D01*
X190960476Y-121501428D01*
X190912857Y-121453809D01*
X190817619Y-121406190D01*
X190627142Y-121358571D01*
X190531904Y-121310952D01*
X190484285Y-121263333D01*
X190436666Y-121168095D01*
X190436666Y-121072857D01*
X190484285Y-120977619D01*
X190531904Y-120930000D01*
X190627142Y-120882380D01*
X190865238Y-120882380D01*
X191008095Y-120930000D01*
X191341428Y-120882380D02*
X191579523Y-121882380D01*
X191770000Y-121168095D01*
X191960476Y-121882380D01*
X192198571Y-120882380D01*
X192531904Y-120977619D02*
X192579523Y-120930000D01*
X192674761Y-120882380D01*
X192912857Y-120882380D01*
X193008095Y-120930000D01*
X193055714Y-120977619D01*
X193103333Y-121072857D01*
X193103333Y-121168095D01*
X193055714Y-121310952D01*
X192484285Y-121882380D01*
X193103333Y-121882380D01*
%TO.C,R5*%
X116673333Y-127832380D02*
X116340000Y-127356190D01*
X116101904Y-127832380D02*
X116101904Y-126832380D01*
X116482857Y-126832380D01*
X116578095Y-126880000D01*
X116625714Y-126927619D01*
X116673333Y-127022857D01*
X116673333Y-127165714D01*
X116625714Y-127260952D01*
X116578095Y-127308571D01*
X116482857Y-127356190D01*
X116101904Y-127356190D01*
X117578095Y-126832380D02*
X117101904Y-126832380D01*
X117054285Y-127308571D01*
X117101904Y-127260952D01*
X117197142Y-127213333D01*
X117435238Y-127213333D01*
X117530476Y-127260952D01*
X117578095Y-127308571D01*
X117625714Y-127403809D01*
X117625714Y-127641904D01*
X117578095Y-127737142D01*
X117530476Y-127784761D01*
X117435238Y-127832380D01*
X117197142Y-127832380D01*
X117101904Y-127784761D01*
X117054285Y-127737142D01*
%TO.C,SW1*%
X96456666Y-75024761D02*
X96599523Y-75072380D01*
X96837619Y-75072380D01*
X96932857Y-75024761D01*
X96980476Y-74977142D01*
X97028095Y-74881904D01*
X97028095Y-74786666D01*
X96980476Y-74691428D01*
X96932857Y-74643809D01*
X96837619Y-74596190D01*
X96647142Y-74548571D01*
X96551904Y-74500952D01*
X96504285Y-74453333D01*
X96456666Y-74358095D01*
X96456666Y-74262857D01*
X96504285Y-74167619D01*
X96551904Y-74120000D01*
X96647142Y-74072380D01*
X96885238Y-74072380D01*
X97028095Y-74120000D01*
X97361428Y-74072380D02*
X97599523Y-75072380D01*
X97790000Y-74358095D01*
X97980476Y-75072380D01*
X98218571Y-74072380D01*
X99123333Y-75072380D02*
X98551904Y-75072380D01*
X98837619Y-75072380D02*
X98837619Y-74072380D01*
X98742380Y-74215238D01*
X98647142Y-74310476D01*
X98551904Y-74358095D01*
%TO.C,H1*%
X84238095Y-56252380D02*
X84238095Y-55252380D01*
X84238095Y-55728571D02*
X84809523Y-55728571D01*
X84809523Y-56252380D02*
X84809523Y-55252380D01*
X85809523Y-56252380D02*
X85238095Y-56252380D01*
X85523809Y-56252380D02*
X85523809Y-55252380D01*
X85428571Y-55395238D01*
X85333333Y-55490476D01*
X85238095Y-55538095D01*
%TO.C,D1*%
X158312380Y-68518095D02*
X157312380Y-68518095D01*
X157312380Y-68280000D01*
X157360000Y-68137142D01*
X157455238Y-68041904D01*
X157550476Y-67994285D01*
X157740952Y-67946666D01*
X157883809Y-67946666D01*
X158074285Y-67994285D01*
X158169523Y-68041904D01*
X158264761Y-68137142D01*
X158312380Y-68280000D01*
X158312380Y-68518095D01*
X158312380Y-66994285D02*
X158312380Y-67565714D01*
X158312380Y-67280000D02*
X157312380Y-67280000D01*
X157455238Y-67375238D01*
X157550476Y-67470476D01*
X157598095Y-67565714D01*
%TO.C,R8*%
X110942380Y-91606666D02*
X110466190Y-91940000D01*
X110942380Y-92178095D02*
X109942380Y-92178095D01*
X109942380Y-91797142D01*
X109990000Y-91701904D01*
X110037619Y-91654285D01*
X110132857Y-91606666D01*
X110275714Y-91606666D01*
X110370952Y-91654285D01*
X110418571Y-91701904D01*
X110466190Y-91797142D01*
X110466190Y-92178095D01*
X110370952Y-91035238D02*
X110323333Y-91130476D01*
X110275714Y-91178095D01*
X110180476Y-91225714D01*
X110132857Y-91225714D01*
X110037619Y-91178095D01*
X109990000Y-91130476D01*
X109942380Y-91035238D01*
X109942380Y-90844761D01*
X109990000Y-90749523D01*
X110037619Y-90701904D01*
X110132857Y-90654285D01*
X110180476Y-90654285D01*
X110275714Y-90701904D01*
X110323333Y-90749523D01*
X110370952Y-90844761D01*
X110370952Y-91035238D01*
X110418571Y-91130476D01*
X110466190Y-91178095D01*
X110561428Y-91225714D01*
X110751904Y-91225714D01*
X110847142Y-91178095D01*
X110894761Y-91130476D01*
X110942380Y-91035238D01*
X110942380Y-90844761D01*
X110894761Y-90749523D01*
X110847142Y-90701904D01*
X110751904Y-90654285D01*
X110561428Y-90654285D01*
X110466190Y-90701904D01*
X110418571Y-90749523D01*
X110370952Y-90844761D01*
%TO.C,R10*%
X200455897Y-130192304D02*
X199979707Y-130525637D01*
X200455897Y-130763732D02*
X199455897Y-130763732D01*
X199455897Y-130382780D01*
X199503517Y-130287542D01*
X199551136Y-130239923D01*
X199646374Y-130192304D01*
X199789231Y-130192304D01*
X199884469Y-130239923D01*
X199932088Y-130287542D01*
X199979707Y-130382780D01*
X199979707Y-130763732D01*
X200455897Y-129239923D02*
X200455897Y-129811351D01*
X200455897Y-129525637D02*
X199455897Y-129525637D01*
X199598755Y-129620875D01*
X199693993Y-129716113D01*
X199741612Y-129811351D01*
X199455897Y-128620875D02*
X199455897Y-128525637D01*
X199503517Y-128430399D01*
X199551136Y-128382780D01*
X199646374Y-128335161D01*
X199836850Y-128287542D01*
X200074945Y-128287542D01*
X200265421Y-128335161D01*
X200360659Y-128382780D01*
X200408278Y-128430399D01*
X200455897Y-128525637D01*
X200455897Y-128620875D01*
X200408278Y-128716113D01*
X200360659Y-128763732D01*
X200265421Y-128811351D01*
X200074945Y-128858970D01*
X199836850Y-128858970D01*
X199646374Y-128811351D01*
X199551136Y-128763732D01*
X199503517Y-128716113D01*
X199455897Y-128620875D01*
%TO.C,C6*%
X89637142Y-129286666D02*
X89684761Y-129334285D01*
X89732380Y-129477142D01*
X89732380Y-129572380D01*
X89684761Y-129715238D01*
X89589523Y-129810476D01*
X89494285Y-129858095D01*
X89303809Y-129905714D01*
X89160952Y-129905714D01*
X88970476Y-129858095D01*
X88875238Y-129810476D01*
X88780000Y-129715238D01*
X88732380Y-129572380D01*
X88732380Y-129477142D01*
X88780000Y-129334285D01*
X88827619Y-129286666D01*
X88732380Y-128429523D02*
X88732380Y-128620000D01*
X88780000Y-128715238D01*
X88827619Y-128762857D01*
X88970476Y-128858095D01*
X89160952Y-128905714D01*
X89541904Y-128905714D01*
X89637142Y-128858095D01*
X89684761Y-128810476D01*
X89732380Y-128715238D01*
X89732380Y-128524761D01*
X89684761Y-128429523D01*
X89637142Y-128381904D01*
X89541904Y-128334285D01*
X89303809Y-128334285D01*
X89208571Y-128381904D01*
X89160952Y-128429523D01*
X89113333Y-128524761D01*
X89113333Y-128715238D01*
X89160952Y-128810476D01*
X89208571Y-128858095D01*
X89303809Y-128905714D01*
%TO.C,R12*%
X172077142Y-132532380D02*
X171743809Y-132056190D01*
X171505714Y-132532380D02*
X171505714Y-131532380D01*
X171886666Y-131532380D01*
X171981904Y-131580000D01*
X172029523Y-131627619D01*
X172077142Y-131722857D01*
X172077142Y-131865714D01*
X172029523Y-131960952D01*
X171981904Y-132008571D01*
X171886666Y-132056190D01*
X171505714Y-132056190D01*
X173029523Y-132532380D02*
X172458095Y-132532380D01*
X172743809Y-132532380D02*
X172743809Y-131532380D01*
X172648571Y-131675238D01*
X172553333Y-131770476D01*
X172458095Y-131818095D01*
X173410476Y-131627619D02*
X173458095Y-131580000D01*
X173553333Y-131532380D01*
X173791428Y-131532380D01*
X173886666Y-131580000D01*
X173934285Y-131627619D01*
X173981904Y-131722857D01*
X173981904Y-131818095D01*
X173934285Y-131960952D01*
X173362857Y-132532380D01*
X173981904Y-132532380D01*
%TO.C,J3*%
X119046666Y-75912380D02*
X119046666Y-76626666D01*
X118999047Y-76769523D01*
X118903809Y-76864761D01*
X118760952Y-76912380D01*
X118665714Y-76912380D01*
X119427619Y-75912380D02*
X120046666Y-75912380D01*
X119713333Y-76293333D01*
X119856190Y-76293333D01*
X119951428Y-76340952D01*
X119999047Y-76388571D01*
X120046666Y-76483809D01*
X120046666Y-76721904D01*
X119999047Y-76817142D01*
X119951428Y-76864761D01*
X119856190Y-76912380D01*
X119570476Y-76912380D01*
X119475238Y-76864761D01*
X119427619Y-76817142D01*
%TO.C,Y2*%
X131376190Y-130036190D02*
X131852380Y-130036190D01*
X130852380Y-130369523D02*
X131376190Y-130036190D01*
X130852380Y-129702857D01*
X130947619Y-129417142D02*
X130900000Y-129369523D01*
X130852380Y-129274285D01*
X130852380Y-129036190D01*
X130900000Y-128940952D01*
X130947619Y-128893333D01*
X131042857Y-128845714D01*
X131138095Y-128845714D01*
X131280952Y-128893333D01*
X131852380Y-129464761D01*
X131852380Y-128845714D01*
%TO.C,C1*%
X149623626Y-65690133D02*
X149576007Y-65737752D01*
X149433150Y-65785371D01*
X149337912Y-65785371D01*
X149195054Y-65737752D01*
X149099816Y-65642514D01*
X149052197Y-65547276D01*
X149004578Y-65356800D01*
X149004578Y-65213943D01*
X149052197Y-65023467D01*
X149099816Y-64928229D01*
X149195054Y-64832991D01*
X149337912Y-64785371D01*
X149433150Y-64785371D01*
X149576007Y-64832991D01*
X149623626Y-64880610D01*
X150576007Y-65785371D02*
X150004578Y-65785371D01*
X150290293Y-65785371D02*
X150290293Y-64785371D01*
X150195054Y-64928229D01*
X150099816Y-65023467D01*
X150004578Y-65071086D01*
%TO.C,SW4*%
X165036666Y-122254761D02*
X165179523Y-122302380D01*
X165417619Y-122302380D01*
X165512857Y-122254761D01*
X165560476Y-122207142D01*
X165608095Y-122111904D01*
X165608095Y-122016666D01*
X165560476Y-121921428D01*
X165512857Y-121873809D01*
X165417619Y-121826190D01*
X165227142Y-121778571D01*
X165131904Y-121730952D01*
X165084285Y-121683333D01*
X165036666Y-121588095D01*
X165036666Y-121492857D01*
X165084285Y-121397619D01*
X165131904Y-121350000D01*
X165227142Y-121302380D01*
X165465238Y-121302380D01*
X165608095Y-121350000D01*
X165941428Y-121302380D02*
X166179523Y-122302380D01*
X166370000Y-121588095D01*
X166560476Y-122302380D01*
X166798571Y-121302380D01*
X167608095Y-121635714D02*
X167608095Y-122302380D01*
X167370000Y-121254761D02*
X167131904Y-121969047D01*
X167750952Y-121969047D01*
%TO.C,C2*%
X152174561Y-65765717D02*
X152126942Y-65813336D01*
X151984085Y-65860955D01*
X151888847Y-65860955D01*
X151745989Y-65813336D01*
X151650751Y-65718098D01*
X151603132Y-65622860D01*
X151555513Y-65432384D01*
X151555513Y-65289527D01*
X151603132Y-65099051D01*
X151650751Y-65003813D01*
X151745989Y-64908575D01*
X151888847Y-64860955D01*
X151984085Y-64860955D01*
X152126942Y-64908575D01*
X152174561Y-64956194D01*
X152555513Y-64956194D02*
X152603132Y-64908575D01*
X152698370Y-64860955D01*
X152936466Y-64860955D01*
X153031704Y-64908575D01*
X153079323Y-64956194D01*
X153126942Y-65051432D01*
X153126942Y-65146670D01*
X153079323Y-65289527D01*
X152507894Y-65860955D01*
X153126942Y-65860955D01*
%TO.C,U3*%
X176187380Y-102351904D02*
X176996904Y-102351904D01*
X177092142Y-102304285D01*
X177139761Y-102256666D01*
X177187380Y-102161428D01*
X177187380Y-101970952D01*
X177139761Y-101875714D01*
X177092142Y-101828095D01*
X176996904Y-101780476D01*
X176187380Y-101780476D01*
X176187380Y-101399523D02*
X176187380Y-100780476D01*
X176568333Y-101113809D01*
X176568333Y-100970952D01*
X176615952Y-100875714D01*
X176663571Y-100828095D01*
X176758809Y-100780476D01*
X176996904Y-100780476D01*
X177092142Y-100828095D01*
X177139761Y-100875714D01*
X177187380Y-100970952D01*
X177187380Y-101256666D01*
X177139761Y-101351904D01*
X177092142Y-101399523D01*
%TO.C,R7*%
X196412380Y-94146666D02*
X195936190Y-94480000D01*
X196412380Y-94718095D02*
X195412380Y-94718095D01*
X195412380Y-94337142D01*
X195460000Y-94241904D01*
X195507619Y-94194285D01*
X195602857Y-94146666D01*
X195745714Y-94146666D01*
X195840952Y-94194285D01*
X195888571Y-94241904D01*
X195936190Y-94337142D01*
X195936190Y-94718095D01*
X195412380Y-93813333D02*
X195412380Y-93146666D01*
X196412380Y-93575238D01*
%TO.C,U2*%
X94488095Y-125762380D02*
X94488095Y-126571904D01*
X94535714Y-126667142D01*
X94583333Y-126714761D01*
X94678571Y-126762380D01*
X94869047Y-126762380D01*
X94964285Y-126714761D01*
X95011904Y-126667142D01*
X95059523Y-126571904D01*
X95059523Y-125762380D01*
X95488095Y-125857619D02*
X95535714Y-125810000D01*
X95630952Y-125762380D01*
X95869047Y-125762380D01*
X95964285Y-125810000D01*
X96011904Y-125857619D01*
X96059523Y-125952857D01*
X96059523Y-126048095D01*
X96011904Y-126190952D01*
X95440476Y-126762380D01*
X96059523Y-126762380D01*
%TO.C,Y1*%
X152773092Y-84256155D02*
X152773092Y-84732345D01*
X152439759Y-83732345D02*
X152773092Y-84256155D01*
X153106425Y-83732345D01*
X153963568Y-84732345D02*
X153392140Y-84732345D01*
X153677854Y-84732345D02*
X153677854Y-83732345D01*
X153582616Y-83875203D01*
X153487378Y-83970441D01*
X153392140Y-84018060D01*
D11*
%TO.C,U1*%
X132030000Y-78040000D02*
X167710000Y-78040000D01*
X167710000Y-78040000D02*
X167710000Y-72740000D01*
X132030000Y-76390000D02*
X132030000Y-78040000D01*
X132030000Y-72740000D02*
X132030000Y-74390000D01*
X167710000Y-72740000D02*
X132030000Y-72740000D01*
X132030000Y-76390000D02*
G75*
G03*
X132030000Y-74390000I0J1000000D01*
G01*
%TO.C,J1*%
X107890000Y-62640000D02*
X107890000Y-65300000D01*
X120650000Y-62640000D02*
X107890000Y-62640000D01*
X121920000Y-62640000D02*
X123250000Y-62640000D01*
X120650000Y-65300000D02*
X107890000Y-65300000D01*
X123250000Y-62640000D02*
X123250000Y-63970000D01*
X120650000Y-62640000D02*
X120650000Y-65300000D01*
%TO.C,U4*%
X128370000Y-121850000D02*
X123070000Y-121850000D01*
X128370000Y-132130000D02*
X128370000Y-121850000D01*
X126720000Y-132130000D02*
X128370000Y-132130000D01*
X123070000Y-132130000D02*
X124720000Y-132130000D01*
X123070000Y-121850000D02*
X123070000Y-132130000D01*
X126720000Y-132130000D02*
G75*
G03*
X124720000Y-132130000I-1000000J0D01*
G01*
%TO.C,J4*%
X144835000Y-62640000D02*
X144835000Y-63970000D01*
X142235000Y-62640000D02*
X132015000Y-62640000D01*
X132015000Y-62640000D02*
X132015000Y-65300000D01*
X142235000Y-65300000D02*
X132015000Y-65300000D01*
X143505000Y-62640000D02*
X144835000Y-62640000D01*
X142235000Y-62640000D02*
X142235000Y-65300000D01*
D10*
%TO.C,DS1*%
X124635000Y-109955000D02*
X124635000Y-90705000D01*
X175085000Y-109955000D02*
X124635000Y-109955000D01*
X175085000Y-109955000D02*
X175085000Y-90705000D01*
X175085000Y-90705000D02*
X124635000Y-90705000D01*
D12*
X142365000Y-110555000D02*
G75*
G03*
X142365000Y-110555000I-125000J0D01*
G01*
D11*
%TO.C,SW3*%
X173970000Y-123850000D02*
X173970000Y-122850000D01*
X182170000Y-124850000D02*
X182170000Y-127450000D01*
X182070000Y-129400000D02*
X176070000Y-129400000D01*
X175970000Y-124850000D02*
X175970000Y-127450000D01*
X181970000Y-122900000D02*
X176170000Y-122900000D01*
X173970000Y-122850000D02*
X174970000Y-122850000D01*
%TO.C,BT1*%
X93470017Y-105913686D02*
X93470017Y-108363686D01*
X99570017Y-108363686D02*
X99570017Y-105913686D01*
X94020017Y-108913686D02*
X99020017Y-108913686D01*
X100040017Y-105213686D02*
G75*
G03*
X96004026Y-81600243I-3520000J11550000D01*
G01*
X99020017Y-108913686D02*
G75*
G03*
X99570017Y-108363686I1J549999D01*
G01*
X100063502Y-105208917D02*
G75*
G03*
X99570017Y-105913686I256515J-704769D01*
G01*
X93470017Y-105913686D02*
G75*
G03*
X92976532Y-105208917I-750000J0D01*
G01*
X97036008Y-81600243D02*
G75*
G03*
X93000017Y-105213686I-515991J-12063443D01*
G01*
X93470017Y-108363686D02*
G75*
G03*
X94020017Y-108913686I549999J-1D01*
G01*
%TO.C,J5*%
X157425000Y-84350000D02*
X157425000Y-83020000D01*
X170245000Y-84350000D02*
X170245000Y-81690000D01*
X160025000Y-84350000D02*
X160025000Y-81690000D01*
X160025000Y-81690000D02*
X170245000Y-81690000D01*
X160025000Y-84350000D02*
X170245000Y-84350000D01*
X158755000Y-84350000D02*
X157425000Y-84350000D01*
%TO.C,SW2*%
X188670000Y-124430000D02*
X188670000Y-127030000D01*
X186670000Y-122430000D02*
X187670000Y-122430000D01*
X194670000Y-122480000D02*
X188870000Y-122480000D01*
X194770000Y-128980000D02*
X188770000Y-128980000D01*
X194870000Y-124430000D02*
X194870000Y-127030000D01*
X186670000Y-123430000D02*
X186670000Y-122430000D01*
%TO.C,SW1*%
X94790000Y-67070000D02*
X100790000Y-67070000D01*
X100890000Y-71620000D02*
X100890000Y-69020000D01*
X102890000Y-73620000D02*
X101890000Y-73620000D01*
X94890000Y-73570000D02*
X100690000Y-73570000D01*
X102890000Y-72620000D02*
X102890000Y-73620000D01*
X94690000Y-71620000D02*
X94690000Y-69020000D01*
%TO.C,D1*%
X157170000Y-66095000D02*
X155250000Y-66095000D01*
X155250000Y-66095000D02*
X155250000Y-68780000D01*
X157170000Y-68780000D02*
X157170000Y-66095000D01*
%TO.C,R8*%
X111730000Y-94030000D02*
X111730000Y-90580000D01*
X116030000Y-94030000D02*
X116030000Y-90580000D01*
X111745612Y-94055476D02*
G75*
G03*
X116030000Y-94030000I2134388J1325476D01*
G01*
X116012144Y-90551973D02*
G75*
G03*
X111730000Y-90580000I-2132144J-1378027D01*
G01*
%TO.C,J3*%
X121980000Y-72860000D02*
X119380000Y-72860000D01*
X116780000Y-75460000D02*
X116780000Y-67720000D01*
X121980000Y-75460000D02*
X120650000Y-75460000D01*
X121980000Y-72860000D02*
X121980000Y-67720000D01*
X121980000Y-74130000D02*
X121980000Y-75460000D01*
X119380000Y-72860000D02*
X119380000Y-75460000D01*
X121980000Y-67720000D02*
X116780000Y-67720000D01*
X119380000Y-75460000D02*
X116780000Y-75460000D01*
%TO.C,Y2*%
X132450000Y-131510000D02*
X134250000Y-131510000D01*
X134300000Y-130110000D02*
X134300000Y-129010000D01*
X132400000Y-130110000D02*
X132400000Y-129010000D01*
%TO.C,SW4*%
X161270000Y-123850000D02*
X161270000Y-122850000D01*
X163270000Y-124850000D02*
X163270000Y-127450000D01*
X169270000Y-122900000D02*
X163470000Y-122900000D01*
X161270000Y-122850000D02*
X162270000Y-122850000D01*
X169470000Y-124850000D02*
X169470000Y-127450000D01*
X169370000Y-129400000D02*
X163370000Y-129400000D01*
%TO.C,U3*%
X208335000Y-98940000D02*
X177735000Y-98940000D01*
X208335000Y-104240000D02*
X208335000Y-98940000D01*
X177735000Y-98940000D02*
X177735000Y-100590000D01*
X177735000Y-104240000D02*
X208335000Y-104240000D01*
X177735000Y-102590000D02*
X177735000Y-104240000D01*
X177735000Y-102590000D02*
G75*
G03*
X177735000Y-100590000I0J1000000D01*
G01*
%TO.C,U2*%
X92780000Y-127630000D02*
X89950000Y-127630000D01*
X92780000Y-133990000D02*
X91680000Y-133990000D01*
X94280000Y-134260000D02*
X92780000Y-134260000D01*
X92780000Y-134260000D02*
X92780000Y-133990000D01*
X94280000Y-127360000D02*
X92780000Y-127360000D01*
X92780000Y-127360000D02*
X92780000Y-127630000D01*
%TO.C,Y1*%
X159930000Y-85080000D02*
X147330000Y-85080000D01*
X159930000Y-90180000D02*
X159930000Y-85080000D01*
X147330000Y-90180000D02*
X159930000Y-90180000D01*
%TD*%
%LPC*%
D13*
%TO.C,U1*%
X133360000Y-79200000D03*
D14*
X135900000Y-79200000D03*
X138440000Y-79200000D03*
X140980000Y-79200000D03*
X143520000Y-79200000D03*
X146060000Y-79200000D03*
X148600000Y-79200000D03*
X151140000Y-79200000D03*
X153680000Y-79200000D03*
X156220000Y-79200000D03*
X158760000Y-79200000D03*
X161300000Y-79200000D03*
X163840000Y-79200000D03*
X166380000Y-79200000D03*
X166380000Y-71580000D03*
X163840000Y-71580000D03*
X161300000Y-71580000D03*
X158760000Y-71580000D03*
X156220000Y-71580000D03*
X153680000Y-71580000D03*
X151140000Y-71580000D03*
X148600000Y-71580000D03*
X146060000Y-71580000D03*
X143520000Y-71580000D03*
X140980000Y-71580000D03*
X138440000Y-71580000D03*
X135900000Y-71580000D03*
X133360000Y-71580000D03*
%TD*%
D15*
%TO.C,H4*%
X215000000Y-140000000D03*
%TD*%
D16*
%TO.C,J1*%
X121920000Y-63970000D03*
D17*
X119380000Y-63970000D03*
X116840000Y-63970000D03*
X114300000Y-63970000D03*
X111760000Y-63970000D03*
X109220000Y-63970000D03*
%TD*%
D13*
%TO.C,U4*%
X129530000Y-130800000D03*
D14*
X129530000Y-128260000D03*
X129530000Y-125720000D03*
X129530000Y-123180000D03*
X121910000Y-123180000D03*
X121910000Y-125720000D03*
X121910000Y-128260000D03*
X121910000Y-130800000D03*
%TD*%
D18*
%TO.C,R9*%
X113880000Y-87630000D03*
X112180000Y-87630000D03*
%TD*%
D19*
%TO.C,C8*%
X191770000Y-90600000D03*
X191770000Y-88900000D03*
%TD*%
D18*
%TO.C,C7*%
X91010000Y-135890000D03*
X92710000Y-135890000D03*
%TD*%
D19*
%TO.C,R2*%
X111760000Y-67780000D03*
X111760000Y-69480000D03*
%TD*%
D16*
%TO.C,J4*%
X143505000Y-63970000D03*
D17*
X140965000Y-63970000D03*
X138425000Y-63970000D03*
X135885000Y-63970000D03*
X133345000Y-63970000D03*
%TD*%
D18*
%TO.C,C5*%
X105830000Y-67780000D03*
X107530000Y-67780000D03*
%TD*%
%TO.C,R6*%
X115990000Y-123190000D03*
X117690000Y-123190000D03*
%TD*%
D19*
%TO.C,R11*%
X185420000Y-130390000D03*
X185420000Y-128690000D03*
%TD*%
%TO.C,R4*%
X156210000Y-64820000D03*
X156210000Y-63120000D03*
%TD*%
D20*
%TO.C,DS1*%
X142240000Y-107950000D03*
D21*
X144780000Y-107950000D03*
X147320000Y-107950000D03*
X149860000Y-107950000D03*
X152400000Y-107950000D03*
X154940000Y-107950000D03*
X157480000Y-107950000D03*
X157480000Y-92710000D03*
X154940000Y-92710000D03*
X152400000Y-92710000D03*
X149860000Y-92710000D03*
X147320000Y-92710000D03*
X144780000Y-92710000D03*
X142240000Y-92710000D03*
%TD*%
D18*
%TO.C,C4*%
X144360000Y-87630000D03*
X142660000Y-87630000D03*
%TD*%
D19*
%TO.C,C9*%
X194310000Y-90600000D03*
X194310000Y-88900000D03*
%TD*%
D22*
%TO.C,SW3*%
X175070000Y-123900000D03*
X183070000Y-123900000D03*
X175070000Y-128400000D03*
X183070000Y-128400000D03*
%TD*%
D15*
%TO.C,H2*%
X215000000Y-60000000D03*
%TD*%
D19*
%TO.C,R1*%
X133350000Y-85940000D03*
X133350000Y-84240000D03*
%TD*%
D23*
%TO.C,BT1*%
X96520017Y-106863686D03*
D24*
X96520017Y-86373686D03*
%TD*%
D19*
%TO.C,R3*%
X114300000Y-67780000D03*
X114300000Y-69480000D03*
%TD*%
D16*
%TO.C,J5*%
X158755000Y-83020000D03*
D17*
X161295000Y-83020000D03*
X163835000Y-83020000D03*
X166375000Y-83020000D03*
X168915000Y-83020000D03*
%TD*%
D15*
%TO.C,H3*%
X85000000Y-140000000D03*
%TD*%
D18*
%TO.C,C3*%
X161710000Y-87630000D03*
X163410000Y-87630000D03*
%TD*%
D22*
%TO.C,SW2*%
X187770000Y-123480000D03*
X195770000Y-123480000D03*
X187770000Y-127980000D03*
X195770000Y-127980000D03*
%TD*%
D18*
%TO.C,R5*%
X117690000Y-125730000D03*
X115990000Y-125730000D03*
%TD*%
D22*
%TO.C,SW1*%
X101790000Y-72570000D03*
X93790000Y-72570000D03*
X101790000Y-68070000D03*
X93790000Y-68070000D03*
%TD*%
D15*
%TO.C,H1*%
X85000000Y-60000000D03*
%TD*%
D25*
%TO.C,D1*%
X156210000Y-66842500D03*
X156210000Y-68717500D03*
%TD*%
D26*
%TO.C,R8*%
X113880000Y-93980000D03*
X113880000Y-90580000D03*
%TD*%
D19*
%TO.C,R10*%
X198120000Y-130390000D03*
X198120000Y-128690000D03*
%TD*%
%TO.C,C6*%
X87630000Y-128270000D03*
X87630000Y-129970000D03*
%TD*%
%TO.C,R12*%
X172720000Y-130390000D03*
X172720000Y-128690000D03*
%TD*%
D16*
%TO.C,J3*%
X120650000Y-74130000D03*
D17*
X118110000Y-74130000D03*
X120650000Y-71590000D03*
X118110000Y-71590000D03*
X120650000Y-69050000D03*
X118110000Y-69050000D03*
%TD*%
D27*
%TO.C,Y2*%
X133350000Y-130810000D03*
X133350000Y-128310000D03*
%TD*%
D19*
%TO.C,C1*%
X151130000Y-68630000D03*
X151130000Y-66930000D03*
%TD*%
D22*
%TO.C,SW4*%
X162370000Y-123900000D03*
X170370000Y-123900000D03*
X162370000Y-128400000D03*
X170370000Y-128400000D03*
%TD*%
D19*
%TO.C,C2*%
X153670000Y-68630000D03*
X153670000Y-66930000D03*
%TD*%
D13*
%TO.C,U3*%
X179065000Y-105400000D03*
D14*
X181605000Y-105400000D03*
X184145000Y-105400000D03*
X186685000Y-105400000D03*
X189225000Y-105400000D03*
X191765000Y-105400000D03*
X194305000Y-105400000D03*
X196845000Y-105400000D03*
X199385000Y-105400000D03*
X201925000Y-105400000D03*
X204465000Y-105400000D03*
X207005000Y-105400000D03*
X207005000Y-97780000D03*
X204465000Y-97780000D03*
X201925000Y-97780000D03*
X199385000Y-97780000D03*
X196845000Y-97780000D03*
X194305000Y-97780000D03*
X191765000Y-97780000D03*
X189225000Y-97780000D03*
X186685000Y-97780000D03*
X184145000Y-97780000D03*
X181605000Y-97780000D03*
X179065000Y-97780000D03*
%TD*%
D19*
%TO.C,R7*%
X194310000Y-93130000D03*
X194310000Y-94830000D03*
%TD*%
D28*
%TO.C,U2*%
X91050000Y-128530000D03*
D29*
X97350000Y-130810000D03*
D28*
X91050000Y-133090000D03*
%TD*%
D30*
%TO.C,Y1*%
X157480000Y-87630000D03*
X148980000Y-87630000D03*
%TD*%
D31*
%TO.C,J2*%
X91440000Y-124150000D03*
D32*
X86140000Y-121850000D03*
X88640000Y-118150000D03*
%TD*%
M02*
