%TF.GenerationSoftware,KiCad,Pcbnew,(6.0.5)*%
%TF.CreationDate,2022-07-21T11:20:11-07:00*%
%TF.ProjectId,clock,636c6f63-6b2e-46b6-9963-61645f706362,rev?*%
%TF.SameCoordinates,Original*%
%TF.FileFunction,Soldermask,Top*%
%TF.FilePolarity,Negative*%
%FSLAX46Y46*%
G04 Gerber Fmt 4.6, Leading zero omitted, Abs format (unit mm)*
G04 Created by KiCad (PCBNEW (6.0.5)) date 2022-07-21 11:20:11*
%MOMM*%
%LPD*%
G01*
G04 APERTURE LIST*
G04 Aperture macros list*
%AMRoundRect*
0 Rectangle with rounded corners*
0 $1 Rounding radius*
0 $2 $3 $4 $5 $6 $7 $8 $9 X,Y pos of 4 corners*
0 Add a 4 corners polygon primitive as box body*
4,1,4,$2,$3,$4,$5,$6,$7,$8,$9,$2,$3,0*
0 Add four circle primitives for the rounded corners*
1,1,$1+$1,$2,$3*
1,1,$1+$1,$4,$5*
1,1,$1+$1,$6,$7*
1,1,$1+$1,$8,$9*
0 Add four rect primitives between the rounded corners*
20,1,$1+$1,$2,$3,$4,$5,0*
20,1,$1+$1,$4,$5,$6,$7,0*
20,1,$1+$1,$6,$7,$8,$9,0*
20,1,$1+$1,$8,$9,$2,$3,0*%
G04 Aperture macros list end*
%ADD10R,1.600000X1.600000*%
%ADD11O,1.600000X1.600000*%
%ADD12C,3.200000*%
%ADD13R,1.700000X1.700000*%
%ADD14O,1.700000X1.700000*%
%ADD15R,1.150000X1.400000*%
%ADD16R,1.400000X1.150000*%
%ADD17R,1.400000X1.400000*%
%ADD18C,1.400000*%
%ADD19R,1.600000X1.400000*%
%ADD20R,3.000000X3.000000*%
%ADD21C,3.000000*%
%ADD22RoundRect,0.243750X-0.456250X0.243750X-0.456250X-0.243750X0.456250X-0.243750X0.456250X0.243750X0*%
%ADD23C,1.600000*%
%ADD24R,1.800000X1.000000*%
%ADD25R,2.200000X1.200000*%
%ADD26R,6.400000X5.800000*%
%ADD27R,4.500000X2.000000*%
%ADD28RoundRect,0.500000X-1.750000X-0.500000X1.750000X-0.500000X1.750000X0.500000X-1.750000X0.500000X0*%
%ADD29RoundRect,0.500000X0.500000X-1.500000X0.500000X1.500000X-0.500000X1.500000X-0.500000X-1.500000X0*%
G04 APERTURE END LIST*
D10*
%TO.C,U1*%
X133360000Y-79200000D03*
D11*
X135900000Y-79200000D03*
X138440000Y-79200000D03*
X140980000Y-79200000D03*
X143520000Y-79200000D03*
X146060000Y-79200000D03*
X148600000Y-79200000D03*
X151140000Y-79200000D03*
X153680000Y-79200000D03*
X156220000Y-79200000D03*
X158760000Y-79200000D03*
X161300000Y-79200000D03*
X163840000Y-79200000D03*
X166380000Y-79200000D03*
X166380000Y-71580000D03*
X163840000Y-71580000D03*
X161300000Y-71580000D03*
X158760000Y-71580000D03*
X156220000Y-71580000D03*
X153680000Y-71580000D03*
X151140000Y-71580000D03*
X148600000Y-71580000D03*
X146060000Y-71580000D03*
X143520000Y-71580000D03*
X140980000Y-71580000D03*
X138440000Y-71580000D03*
X135900000Y-71580000D03*
X133360000Y-71580000D03*
%TD*%
D12*
%TO.C,H4*%
X215000000Y-140000000D03*
%TD*%
D13*
%TO.C,J1*%
X121920000Y-63970000D03*
D14*
X119380000Y-63970000D03*
X116840000Y-63970000D03*
X114300000Y-63970000D03*
X111760000Y-63970000D03*
X109220000Y-63970000D03*
%TD*%
D10*
%TO.C,U4*%
X129530000Y-130800000D03*
D11*
X129530000Y-128260000D03*
X129530000Y-125720000D03*
X129530000Y-123180000D03*
X121910000Y-123180000D03*
X121910000Y-125720000D03*
X121910000Y-128260000D03*
X121910000Y-130800000D03*
%TD*%
D15*
%TO.C,R9*%
X113880000Y-87630000D03*
X112180000Y-87630000D03*
%TD*%
D16*
%TO.C,C8*%
X191770000Y-90600000D03*
X191770000Y-88900000D03*
%TD*%
D15*
%TO.C,C7*%
X91010000Y-135890000D03*
X92710000Y-135890000D03*
%TD*%
D16*
%TO.C,R2*%
X111760000Y-67780000D03*
X111760000Y-69480000D03*
%TD*%
D13*
%TO.C,J4*%
X143505000Y-63970000D03*
D14*
X140965000Y-63970000D03*
X138425000Y-63970000D03*
X135885000Y-63970000D03*
X133345000Y-63970000D03*
%TD*%
D15*
%TO.C,C5*%
X105830000Y-67780000D03*
X107530000Y-67780000D03*
%TD*%
%TO.C,R6*%
X115990000Y-123190000D03*
X117690000Y-123190000D03*
%TD*%
D16*
%TO.C,R11*%
X185420000Y-130390000D03*
X185420000Y-128690000D03*
%TD*%
%TO.C,R4*%
X156210000Y-64820000D03*
X156210000Y-63120000D03*
%TD*%
D17*
%TO.C,DS1*%
X142240000Y-107950000D03*
D18*
X144780000Y-107950000D03*
X147320000Y-107950000D03*
X149860000Y-107950000D03*
X152400000Y-107950000D03*
X154940000Y-107950000D03*
X157480000Y-107950000D03*
X157480000Y-92710000D03*
X154940000Y-92710000D03*
X152400000Y-92710000D03*
X149860000Y-92710000D03*
X147320000Y-92710000D03*
X144780000Y-92710000D03*
X142240000Y-92710000D03*
%TD*%
D15*
%TO.C,C4*%
X144360000Y-87630000D03*
X142660000Y-87630000D03*
%TD*%
D16*
%TO.C,C9*%
X194310000Y-90600000D03*
X194310000Y-88900000D03*
%TD*%
D19*
%TO.C,SW3*%
X175070000Y-123900000D03*
X183070000Y-123900000D03*
X175070000Y-128400000D03*
X183070000Y-128400000D03*
%TD*%
D12*
%TO.C,H2*%
X215000000Y-60000000D03*
%TD*%
D16*
%TO.C,R1*%
X133350000Y-85940000D03*
X133350000Y-84240000D03*
%TD*%
D20*
%TO.C,BT1*%
X96520017Y-106863686D03*
D21*
X96520017Y-86373686D03*
%TD*%
D16*
%TO.C,R3*%
X114300000Y-67780000D03*
X114300000Y-69480000D03*
%TD*%
D13*
%TO.C,J5*%
X158755000Y-83020000D03*
D14*
X161295000Y-83020000D03*
X163835000Y-83020000D03*
X166375000Y-83020000D03*
X168915000Y-83020000D03*
%TD*%
D12*
%TO.C,H3*%
X85000000Y-140000000D03*
%TD*%
D15*
%TO.C,C3*%
X161710000Y-87630000D03*
X163410000Y-87630000D03*
%TD*%
D19*
%TO.C,SW2*%
X187770000Y-123480000D03*
X195770000Y-123480000D03*
X187770000Y-127980000D03*
X195770000Y-127980000D03*
%TD*%
D15*
%TO.C,R5*%
X117690000Y-125730000D03*
X115990000Y-125730000D03*
%TD*%
D19*
%TO.C,SW1*%
X101790000Y-72570000D03*
X93790000Y-72570000D03*
X101790000Y-68070000D03*
X93790000Y-68070000D03*
%TD*%
D12*
%TO.C,H1*%
X85000000Y-60000000D03*
%TD*%
D22*
%TO.C,D1*%
X156210000Y-66842500D03*
X156210000Y-68717500D03*
%TD*%
D23*
%TO.C,R8*%
X113880000Y-93980000D03*
X113880000Y-90580000D03*
%TD*%
D16*
%TO.C,R10*%
X198120000Y-130390000D03*
X198120000Y-128690000D03*
%TD*%
%TO.C,C6*%
X87630000Y-128270000D03*
X87630000Y-129970000D03*
%TD*%
%TO.C,R12*%
X172720000Y-130390000D03*
X172720000Y-128690000D03*
%TD*%
D13*
%TO.C,J3*%
X120650000Y-74130000D03*
D14*
X118110000Y-74130000D03*
X120650000Y-71590000D03*
X118110000Y-71590000D03*
X120650000Y-69050000D03*
X118110000Y-69050000D03*
%TD*%
D24*
%TO.C,Y2*%
X133350000Y-130810000D03*
X133350000Y-128310000D03*
%TD*%
D16*
%TO.C,C1*%
X151130000Y-68630000D03*
X151130000Y-66930000D03*
%TD*%
D19*
%TO.C,SW4*%
X162370000Y-123900000D03*
X170370000Y-123900000D03*
X162370000Y-128400000D03*
X170370000Y-128400000D03*
%TD*%
D16*
%TO.C,C2*%
X153670000Y-68630000D03*
X153670000Y-66930000D03*
%TD*%
D10*
%TO.C,U3*%
X179065000Y-105400000D03*
D11*
X181605000Y-105400000D03*
X184145000Y-105400000D03*
X186685000Y-105400000D03*
X189225000Y-105400000D03*
X191765000Y-105400000D03*
X194305000Y-105400000D03*
X196845000Y-105400000D03*
X199385000Y-105400000D03*
X201925000Y-105400000D03*
X204465000Y-105400000D03*
X207005000Y-105400000D03*
X207005000Y-97780000D03*
X204465000Y-97780000D03*
X201925000Y-97780000D03*
X199385000Y-97780000D03*
X196845000Y-97780000D03*
X194305000Y-97780000D03*
X191765000Y-97780000D03*
X189225000Y-97780000D03*
X186685000Y-97780000D03*
X184145000Y-97780000D03*
X181605000Y-97780000D03*
X179065000Y-97780000D03*
%TD*%
D16*
%TO.C,R7*%
X194310000Y-93130000D03*
X194310000Y-94830000D03*
%TD*%
D25*
%TO.C,U2*%
X91050000Y-128530000D03*
D26*
X97350000Y-130810000D03*
D25*
X91050000Y-133090000D03*
%TD*%
D27*
%TO.C,Y1*%
X157480000Y-87630000D03*
X148980000Y-87630000D03*
%TD*%
D28*
%TO.C,J2*%
X91440000Y-124150000D03*
D29*
X86140000Y-121850000D03*
X88640000Y-118150000D03*
%TD*%
M02*
