M48
; DRILL file {KiCad (6.0.5)} date Thu Jul 21 11:21:54 2022
; FORMAT={-:-/ absolute / inch / decimal}
; #@! TF.CreationDate,2022-07-21T11:21:54-07:00
; #@! TF.GenerationSoftware,Kicad,Pcbnew,(6.0.5)
; #@! TF.FileFunction,MixedPlating,1,2
FMAT,2
INCH
; #@! TA.AperFunction,Plated,PTH,ViaDrill
T1C0.0160
; #@! TA.AperFunction,Plated,PTH,ComponentDrill
T2C0.0315
; #@! TA.AperFunction,Plated,PTH,ComponentDrill
T3C0.0354
; #@! TA.AperFunction,Plated,PTH,ComponentDrill
T4C0.0394
; #@! TA.AperFunction,Plated,PTH,ComponentDrill
T5C0.0591
; #@! TA.AperFunction,NonPlated,NPTH,ComponentDrill
T6C0.1260
%
G90
G05
T1
X0.25Y0.5087
X0.55Y0.2587
X0.75Y0.7587
X0.9Y2.7587
X1.25Y2.3087
X1.5Y3.1087
X1.55Y1.0587
X1.6459Y2.5707
X1.7Y2.9087
X1.7Y2.5087
X1.75Y1.0587
X1.9Y2.7087
X1.979Y2.6296
X2.4Y2.2587
X2.5Y1.8087
X2.75Y1.6087
X2.8Y3.1587
X2.9Y3.1587
X3.0Y3.3087
X3.0Y1.6087
X3.6Y1.7587
X3.6Y0.9087
X3.65Y2.1102
X3.65Y1.8807
X3.7Y1.7587
X3.9Y1.4631
X3.9Y1.3587
X3.95Y1.6587
X3.9615Y1.7807
X4.1Y0.9087
X4.6Y2.2587
X4.6Y0.9087
X4.9Y1.4087
X4.9Y1.3087
T2
X1.3335Y2.1425
X1.3335Y2.0087
X1.6496Y0.8591
X1.6496Y0.7591
X1.6496Y0.6591
X1.6496Y0.5591
X1.9496Y0.8591
X1.9496Y0.7591
X1.9496Y0.6591
X1.9496Y0.5591
X2.1004Y2.8906
X2.1004Y2.5906
X2.2004Y2.8906
X2.2004Y2.5906
X2.3004Y2.8906
X2.3004Y2.5906
X2.4004Y2.8906
X2.4004Y2.5906
X2.5004Y2.8906
X2.5004Y2.5906
X2.6004Y2.8906
X2.6004Y2.5906
X2.7004Y2.8906
X2.7004Y2.5906
X2.8004Y2.8906
X2.8004Y2.5906
X2.9004Y2.8906
X2.9004Y2.5906
X3.0004Y2.8906
X3.0004Y2.5906
X3.1004Y2.8906
X3.1004Y2.5906
X3.2004Y2.8906
X3.2004Y2.5906
X3.3004Y2.8906
X3.3004Y2.5906
X3.4004Y2.8906
X3.4004Y2.5906
X3.8998Y1.8591
X3.8998Y1.5591
X3.9998Y1.8591
X3.9998Y1.5591
X4.0998Y1.8591
X4.0998Y1.5591
X4.1998Y1.8591
X4.1998Y1.5591
X4.2998Y1.8591
X4.2998Y1.5591
X4.3998Y1.8591
X4.3998Y1.5591
X4.4998Y1.8591
X4.4998Y1.5591
X4.5998Y1.8591
X4.5998Y1.5591
X4.6998Y1.8591
X4.6998Y1.5591
X4.7998Y1.8591
X4.7998Y1.5591
X4.8998Y1.8591
X4.8998Y1.5591
X4.9998Y1.8591
X4.9998Y1.5591
T3
X2.45Y2.0587
X2.45Y1.4587
X2.55Y2.0587
X2.55Y1.4587
X2.65Y2.0587
X2.65Y1.4587
X2.75Y2.0587
X2.75Y1.4587
X2.85Y2.0587
X2.85Y1.4587
X2.95Y2.0587
X2.95Y1.4587
X3.05Y2.0587
X3.05Y1.4587
T4
X1.15Y3.1902
X1.25Y3.1902
X1.35Y3.1902
X1.45Y3.1902
X1.5Y2.9902
X1.5Y2.8902
X1.5Y2.7902
X1.55Y3.1902
X1.6Y2.9902
X1.6Y2.8902
X1.6Y2.7902
X1.65Y3.1902
X2.0998Y3.1902
X2.1998Y3.1902
X2.2998Y3.1902
X2.3998Y3.1902
X2.4998Y3.1902
X3.1002Y2.4402
X3.2002Y2.4402
X3.3002Y2.4402
X3.4002Y2.4402
X3.5002Y2.4402
T5
X0.65Y2.3081
X0.65Y1.5014
T6
X0.1965Y3.3465
X0.1965Y0.1969
X5.3146Y3.3465
X5.3146Y0.1969
T4
G00X0.2413Y0.872
M15
G01X0.2413Y0.9508
M16
G05
G00X0.3398Y1.0177
M15
G01X0.3398Y1.0965
M16
G05
G00X0.4008Y0.8209
M15
G01X0.4992Y0.8209
M16
G05
T0
M30
