%TF.GenerationSoftware,KiCad,Pcbnew,(6.0.5)*%
%TF.CreationDate,2022-07-21T11:20:11-07:00*%
%TF.ProjectId,clock,636c6f63-6b2e-46b6-9963-61645f706362,rev?*%
%TF.SameCoordinates,Original*%
%TF.FileFunction,Soldermask,Bot*%
%TF.FilePolarity,Negative*%
%FSLAX46Y46*%
G04 Gerber Fmt 4.6, Leading zero omitted, Abs format (unit mm)*
G04 Created by KiCad (PCBNEW (6.0.5)) date 2022-07-21 11:20:11*
%MOMM*%
%LPD*%
G01*
G04 APERTURE LIST*
G04 Aperture macros list*
%AMRoundRect*
0 Rectangle with rounded corners*
0 $1 Rounding radius*
0 $2 $3 $4 $5 $6 $7 $8 $9 X,Y pos of 4 corners*
0 Add a 4 corners polygon primitive as box body*
4,1,4,$2,$3,$4,$5,$6,$7,$8,$9,$2,$3,0*
0 Add four circle primitives for the rounded corners*
1,1,$1+$1,$2,$3*
1,1,$1+$1,$4,$5*
1,1,$1+$1,$6,$7*
1,1,$1+$1,$8,$9*
0 Add four rect primitives between the rounded corners*
20,1,$1+$1,$2,$3,$4,$5,0*
20,1,$1+$1,$4,$5,$6,$7,0*
20,1,$1+$1,$6,$7,$8,$9,0*
20,1,$1+$1,$8,$9,$2,$3,0*%
G04 Aperture macros list end*
%ADD10R,1.600000X1.600000*%
%ADD11O,1.600000X1.600000*%
%ADD12C,3.200000*%
%ADD13R,1.700000X1.700000*%
%ADD14O,1.700000X1.700000*%
%ADD15R,1.400000X1.400000*%
%ADD16C,1.400000*%
%ADD17R,3.000000X3.000000*%
%ADD18C,3.000000*%
%ADD19C,1.600000*%
%ADD20RoundRect,0.500000X-1.750000X-0.500000X1.750000X-0.500000X1.750000X0.500000X-1.750000X0.500000X0*%
%ADD21RoundRect,0.500000X0.500000X-1.500000X0.500000X1.500000X-0.500000X1.500000X-0.500000X-1.500000X0*%
G04 APERTURE END LIST*
D10*
%TO.C,U1*%
X133360000Y-79200000D03*
D11*
X135900000Y-79200000D03*
X138440000Y-79200000D03*
X140980000Y-79200000D03*
X143520000Y-79200000D03*
X146060000Y-79200000D03*
X148600000Y-79200000D03*
X151140000Y-79200000D03*
X153680000Y-79200000D03*
X156220000Y-79200000D03*
X158760000Y-79200000D03*
X161300000Y-79200000D03*
X163840000Y-79200000D03*
X166380000Y-79200000D03*
X166380000Y-71580000D03*
X163840000Y-71580000D03*
X161300000Y-71580000D03*
X158760000Y-71580000D03*
X156220000Y-71580000D03*
X153680000Y-71580000D03*
X151140000Y-71580000D03*
X148600000Y-71580000D03*
X146060000Y-71580000D03*
X143520000Y-71580000D03*
X140980000Y-71580000D03*
X138440000Y-71580000D03*
X135900000Y-71580000D03*
X133360000Y-71580000D03*
%TD*%
D12*
%TO.C,H4*%
X215000000Y-140000000D03*
%TD*%
D13*
%TO.C,J1*%
X121920000Y-63970000D03*
D14*
X119380000Y-63970000D03*
X116840000Y-63970000D03*
X114300000Y-63970000D03*
X111760000Y-63970000D03*
X109220000Y-63970000D03*
%TD*%
D10*
%TO.C,U4*%
X129530000Y-130800000D03*
D11*
X129530000Y-128260000D03*
X129530000Y-125720000D03*
X129530000Y-123180000D03*
X121910000Y-123180000D03*
X121910000Y-125720000D03*
X121910000Y-128260000D03*
X121910000Y-130800000D03*
%TD*%
D13*
%TO.C,J4*%
X143505000Y-63970000D03*
D14*
X140965000Y-63970000D03*
X138425000Y-63970000D03*
X135885000Y-63970000D03*
X133345000Y-63970000D03*
%TD*%
D15*
%TO.C,DS1*%
X142240000Y-107950000D03*
D16*
X144780000Y-107950000D03*
X147320000Y-107950000D03*
X149860000Y-107950000D03*
X152400000Y-107950000D03*
X154940000Y-107950000D03*
X157480000Y-107950000D03*
X157480000Y-92710000D03*
X154940000Y-92710000D03*
X152400000Y-92710000D03*
X149860000Y-92710000D03*
X147320000Y-92710000D03*
X144780000Y-92710000D03*
X142240000Y-92710000D03*
%TD*%
D12*
%TO.C,H2*%
X215000000Y-60000000D03*
%TD*%
D17*
%TO.C,BT1*%
X96520017Y-106863686D03*
D18*
X96520017Y-86373686D03*
%TD*%
D13*
%TO.C,J5*%
X158755000Y-83020000D03*
D14*
X161295000Y-83020000D03*
X163835000Y-83020000D03*
X166375000Y-83020000D03*
X168915000Y-83020000D03*
%TD*%
D12*
%TO.C,H3*%
X85000000Y-140000000D03*
%TD*%
%TO.C,H1*%
X85000000Y-60000000D03*
%TD*%
D19*
%TO.C,R8*%
X113880000Y-93980000D03*
X113880000Y-90580000D03*
%TD*%
D13*
%TO.C,J3*%
X120650000Y-74130000D03*
D14*
X118110000Y-74130000D03*
X120650000Y-71590000D03*
X118110000Y-71590000D03*
X120650000Y-69050000D03*
X118110000Y-69050000D03*
%TD*%
D10*
%TO.C,U3*%
X179065000Y-105400000D03*
D11*
X181605000Y-105400000D03*
X184145000Y-105400000D03*
X186685000Y-105400000D03*
X189225000Y-105400000D03*
X191765000Y-105400000D03*
X194305000Y-105400000D03*
X196845000Y-105400000D03*
X199385000Y-105400000D03*
X201925000Y-105400000D03*
X204465000Y-105400000D03*
X207005000Y-105400000D03*
X207005000Y-97780000D03*
X204465000Y-97780000D03*
X201925000Y-97780000D03*
X199385000Y-97780000D03*
X196845000Y-97780000D03*
X194305000Y-97780000D03*
X191765000Y-97780000D03*
X189225000Y-97780000D03*
X186685000Y-97780000D03*
X184145000Y-97780000D03*
X181605000Y-97780000D03*
X179065000Y-97780000D03*
%TD*%
D20*
%TO.C,J2*%
X91440000Y-124150000D03*
D21*
X86140000Y-121850000D03*
X88640000Y-118150000D03*
%TD*%
M02*
